HIERARCHY
ROOT Hips
{
	OFFSET 0.00 0.00 0.00
	CHANNELS 6 Xposition Yposition Zposition Xrotation Yrotation Zrotation
	JOINT LeftUpLeg
	{
		OFFSET 3.65156 0.00000 0.00000
		CHANNELS 3 Xrotation Yrotation Zrotation
		JOINT LeftLeg
		{
			OFFSET 0.00000 -15.70501 0.00000
			CHANNELS 3 Xrotation Yrotation Zrotation
			JOINT LeftFoot
			{
				OFFSET 0.00000 -15.41509 0.00000
				CHANNELS 3 Xrotation Yrotation Zrotation
				JOINT LeftToeBase
				{
					OFFSET 0.00000 -1.53202 5.71759
					CHANNELS 3 Xrotation Yrotation Zrotation
					End Site
					{
						OFFSET 0.00000 0.00000 2.95275
					}
				}
			}
		}
	}
	JOINT RightUpLeg
	{
		OFFSET -3.65156 0.00000 0.00000
		CHANNELS 3 Xrotation Yrotation Zrotation
		JOINT RightLeg
		{
			OFFSET 0.00000 -15.70501 0.00000
			CHANNELS 3 Xrotation Yrotation Zrotation
			JOINT RightFoot
			{
				OFFSET 0.00000 -15.41509 0.00000
				CHANNELS 3 Xrotation Yrotation Zrotation
				JOINT RightToeBase
				{
					OFFSET 0.00000 -1.53202 5.71759
					CHANNELS 3 Xrotation Yrotation Zrotation
					End Site
					{
						OFFSET 0.00000 0.00000 2.95275
					}
				}
			}
		}
	}
	JOINT Spine
	{
		OFFSET 0.00000 0.03937 0.00000
		CHANNELS 3 Xrotation Yrotation Zrotation
		JOINT Spine1
		{
			OFFSET 0.00000 10.20120 0.00000
			CHANNELS 3 Xrotation Yrotation Zrotation
			JOINT Neck
			{
				OFFSET 0.00000 7.85680 0.00000
				CHANNELS 3 Xrotation Yrotation Zrotation
				JOINT Head
				{
					OFFSET 0.00000 6.87959 0.00000
					CHANNELS 3 Xrotation Yrotation Zrotation
					End Site
					{
						OFFSET 0.00000 4.52755 0.00000
					}
				}
			}
			JOINT LeftShoulder
			{
				OFFSET 0.00000 7.85680 0.00000
				CHANNELS 3 Xrotation Yrotation Zrotation
				JOINT LeftArm
				{
					OFFSET 6.70743 -0.00002 0.00000
					CHANNELS 3 Xrotation Yrotation Zrotation
					JOINT LeftForeArm
					{
						OFFSET 10.94108 -0.00004 0.00000
						CHANNELS 3 Xrotation Yrotation Zrotation
						JOINT LeftHand
						{
							OFFSET 8.52742 -0.00003 0.00000
							CHANNELS 3 Xrotation Yrotation Zrotation
							JOINT LeftHandThumb
							{
								OFFSET 0.00000 0.00000 0.00000
								CHANNELS 3 Xrotation Yrotation Zrotation
								End Site
								{
									OFFSET 0.00000 0.00000 3.93700
								}
							}
							JOINT L_Wrist_End
							{
								OFFSET 3.93700 -0.00001 0.00000
								CHANNELS 3 Xrotation Yrotation Zrotation
							}
						}
					}
				}
			}
			JOINT RightShoulder
			{
				OFFSET 0.00000 7.85680 0.00000
				CHANNELS 3 Xrotation Yrotation Zrotation
				JOINT RightArm
				{
					OFFSET -6.70743 -0.00002 0.00000
					CHANNELS 3 Xrotation Yrotation Zrotation
					JOINT RightForeArm
					{
						OFFSET -10.94108 -0.00004 0.00000
						CHANNELS 3 Xrotation Yrotation Zrotation
						JOINT RightHand
						{
							OFFSET -8.52742 -0.00003 0.00000
							CHANNELS 3 Xrotation Yrotation Zrotation
							JOINT RightHandThumb
							{
								OFFSET 0.00000 0.00000 0.00000
								CHANNELS 3 Xrotation Yrotation Zrotation
								End Site
								{
									OFFSET 0.00000 0.00000 3.93700
								}
							}
							JOINT R_Wrist_End
							{
								OFFSET -5.39369 -0.00002 0.00000
								CHANNELS 3 Xrotation Yrotation Zrotation
							}
						}
					}
				}
			}
		}
	}
}
MOTION
Frames: 16
Frame Time: 0.066664
 -2.5230 32.7641 -0.9743 -3.8901 -5.8707 -3.9859 0.5500 6.6575 6.7938 25.1183 -0.0000 0.0000 -21.0866 -2.5583 -3.9501 2.7733 0.0000 0.0000 -1.0891 -6.9775 1.4062 16.0137 -0.0000 0.0000 -20.9517 -1.1173 -1.1376 3.6962 0.0000 0.0000 -3.8603 1.6513 0.2897 15.2174 1.4515 4.3795 -0.1764 0.1209 -4.9867 -21.4948 10.7788 -1.5968 19.9177 9.9888 -3.5130 -18.7392 -42.4953 -71.9207 -0.0000 -13.1567 -0.0000 -9.4799 0.2754 -13.5448 -0.0000 0.0000 -0.0000 -0.0000 0.0000 -0.0000 14.4587 -15.1443 5.5546 -15.6123 32.4062 59.7456 -0.0001 22.4588 0.0000 -31.3014 0.7727 3.4565 -0.0000 -0.0000 0.0000 -0.0000 -0.0000 0.0000
 -1.7861 32.5603 -1.5432 -2.9729 -5.0384 -0.8747 3.0181 4.3852 2.0023 17.1958 -0.0000 0.0000 -20.8628 -1.7718 -3.4235 6.0500 -0.0000 0.0000 -13.4231 -5.1718 -3.5450 35.3548 -0.0000 0.0000 -23.0110 -1.6404 -3.7088 2.5428 0.0000 0.0000 -2.8014 1.2035 -1.6207 14.2351 0.1463 1.2951 -1.9201 -0.1301 -5.4042 -23.0463 8.2657 0.6388 19.2879 8.9844 -2.4787 -22.4487 -46.6998 -74.0527 -0.0001 -16.1533 -0.0000 -11.1512 0.5334 -14.0035 -0.0000 0.0000 -0.0000 -0.0000 0.0000 -0.0000 13.8922 -15.9422 5.2823 -16.0788 31.0395 67.8443 -0.0001 21.6092 0.0000 -33.6714 2.2083 5.8537 -0.0000 0.0000 -0.0000 -0.0000 0.0000 -0.0000
 -1.3709 32.6178 -2.0070 -3.0037 -2.6182 -0.0534 2.6850 3.7343 0.8258 15.6700 -0.0000 0.0000 -19.4734 -3.5726 -3.8612 6.2224 -0.0000 0.0000 -22.4411 -4.9150 -6.1665 50.9914 -0.0000 0.0000 -22.9651 -0.4356 -4.2341 3.0526 -0.0000 -0.0000 -2.3065 0.6395 -1.7000 15.2861 -0.9854 -0.5325 -3.1571 -1.6418 -6.1591 -23.8017 5.4630 1.5395 19.6608 7.5294 -3.2263 -27.4943 -53.0033 -73.2288 -0.0001 -17.8279 -0.0000 -10.5640 -0.8678 -13.9691 -0.0000 0.0000 -0.0000 -0.0000 0.0000 -0.0000 14.6877 -15.8636 6.1097 -14.9908 33.6951 73.5519 -0.0001 16.9957 0.0000 -32.5230 0.0697 8.7593 -0.0000 0.0000 -0.0000 -0.0000 0.0000 -0.0000
 -1.2049 32.7968 -2.2005 -3.4859 -0.2939 -1.0396 3.8952 3.0121 1.6683 12.8100 -0.0000 0.0000 -17.7549 -4.7192 -3.8860 6.2611 -0.0000 0.0000 -27.6294 -4.5383 -6.2660 62.4786 -0.0000 0.0000 -23.7152 -1.6810 -5.3169 3.5162 0.0000 0.0000 -2.1157 0.4768 -1.4997 15.7778 -0.8533 0.4334 -2.5500 -2.9480 -6.2941 -23.4770 3.4999 2.2393 18.3818 7.8027 -2.5760 -33.6597 -56.7453 -77.6792 -0.0001 -20.7721 -0.0000 -6.8119 0.2999 -12.3553 -0.0000 0.0000 -0.0000 -0.0000 0.0000 -0.0000 15.6909 -16.3964 6.6801 -10.8338 39.5485 75.2297 -0.0001 13.5933 0.0000 -24.5227 -4.2049 11.6617 -0.0000 0.0000 -0.0000 -0.0000 0.0000 -0.0000
 -1.1816 32.8986 -2.3097 -3.2660 1.7498 -1.4279 4.7695 3.7436 2.3886 9.5881 -0.0000 0.0000 -16.4282 -7.1328 -5.6806 6.4636 -0.0000 0.0000 -31.3709 -3.6723 -6.2681 70.7979 -0.0000 0.0000 -23.7756 -1.7548 -5.1351 3.3407 -0.0000 0.0000 -2.3430 -0.0266 -1.7825 15.7362 -1.0980 1.2831 -2.2295 -3.6267 -5.7641 -22.8766 2.1324 2.8509 18.2542 7.9295 -1.6019 -36.7459 -55.3725 -80.1120 -0.0001 -26.0561 -0.0000 -9.8917 -0.3306 -13.0739 -0.0000 0.0000 -0.0000 -0.0000 0.0000 -0.0000 16.3139 -16.8239 6.8828 -8.0015 40.1073 76.7189 -0.0000 11.8698 0.0000 -23.2499 -5.6939 11.8417 -0.0000 0.0000 -0.0000 -0.0000 0.0000 -0.0000
 -1.1796 32.9178 -2.3550 -3.2549 3.0644 -1.2837 5.5445 2.2465 2.3524 7.6510 -0.0000 0.0000 -15.5475 -6.9912 -6.2166 6.4415 -0.0000 0.0000 -31.8815 -2.4403 -6.2480 74.0304 -0.0000 0.0000 -24.3175 -2.6249 -5.5557 3.2570 0.0000 0.0000 -2.4208 -0.3229 -1.8258 15.9568 -1.3192 1.5373 -2.3476 -4.1073 -5.6537 -22.6078 1.1049 3.3473 17.9698 7.6084 -1.3921 -37.1895 -55.1728 -79.9790 -0.0001 -28.3559 -0.0000 -12.3929 -0.6992 -14.5067 -0.0000 0.0000 -0.0000 -0.0000 0.0000 -0.0000 16.5152 -17.1496 6.7159 -6.6115 38.2413 77.2152 -0.0000 11.4016 0.0000 -24.2211 -6.0499 12.1947 -0.0000 0.0000 -0.0000 -0.0000 0.0000 -0.0000
 -1.2857 32.9035 -2.3606 -2.8561 3.4358 -0.9579 5.1565 2.6441 2.3041 7.4764 -0.0000 0.0000 -15.4855 -7.7882 -6.7412 6.3425 -0.0000 0.0000 -29.5499 -1.6116 -5.7538 71.0592 -0.0000 0.0000 -24.8486 -5.0529 -7.2347 3.3203 0.0000 0.0000 -2.4598 -0.1296 -1.8483 15.3677 -1.1750 1.3639 -2.9811 -5.5429 -5.5104 -19.7501 -1.3538 4.1303 17.8186 7.6268 -1.3804 -37.2640 -55.8949 -80.1027 -0.0001 -26.6777 -0.0000 -10.8823 -0.3320 -13.5967 -0.0000 0.0000 -0.0000 -0.0000 0.0000 -0.0000 16.4546 -16.9883 6.6558 -5.5628 38.2666 75.8621 -0.0000 11.3756 0.0000 -24.3547 -5.8535 11.6970 -0.0000 0.0000 -0.0000 -0.0000 0.0000 -0.0000
 -1.5095 32.8675 -2.2191 -2.7076 4.2024 -0.5706 4.5408 1.9376 2.4314 8.7113 -0.0000 0.0000 -16.0741 -7.9124 -6.8174 6.3456 -0.0000 0.0000 -23.2653 -2.9973 -5.4663 60.7761 -0.0000 0.0000 -23.8960 -5.9948 -7.6158 3.3193 0.0000 0.0000 -2.4264 0.0135 -1.8937 14.2534 -1.1403 1.0296 -2.8910 -10.3124 -5.0877 -14.2132 -6.5376 5.0041 18.0650 7.4814 -1.5370 -34.4160 -56.5516 -78.1520 -0.0001 -24.0559 -0.0000 -10.4442 -0.2040 -13.8097 -0.0000 -0.0000 0.0000 -0.0000 -0.0000 0.0000 16.1372 -16.8675 6.5327 -6.1727 38.6110 74.4914 -0.0000 10.5055 0.0000 -24.4802 -5.8859 10.7850 -0.0000 -0.0000 0.0000 -0.0000 -0.0000 0.0000
 -1.9147 32.7821 -1.8601 -3.2078 4.8279 -0.3288 4.3295 1.3298 3.0992 11.1598 -0.0000 0.0000 -17.4862 -8.0613 -6.8784 5.9800 -0.0000 0.0000 -12.9148 -6.4135 -4.4679 43.8688 -0.0000 0.0000 -19.6975 -4.4403 -3.8225 -3.5218 0.0000 0.0000 -2.7950 0.2292 -1.8947 14.0782 -0.9914 0.8730 -1.7811 -15.0410 -4.7972 -9.4630 -11.5374 5.9789 18.6674 7.6077 -2.0696 -28.1420 -56.3210 -73.2456 -0.0001 -22.8915 -0.0000 -9.4296 -0.3404 -13.3320 -0.0000 -0.0000 0.0000 -0.0000 -0.0000 0.0000 15.7550 -16.3905 6.8984 -8.3959 39.3851 72.7836 -0.0000 9.9938 0.0000 -24.4677 -5.8765 9.8415 -0.0000 0.0000 -0.0000 -0.0000 0.0000 -0.0000
 -2.5947 32.6758 -1.5789 -2.9026 4.1214 -1.4065 0.4945 1.5846 5.4372 19.0520 -0.0000 0.0000 -20.1404 -7.9568 -6.2596 4.8596 -0.0000 0.0000 -3.5317 -9.0255 -1.0927 27.4231 -0.0000 0.0000 -25.5909 -4.8843 -4.1201 2.0784 -0.0000 0.0000 -3.3103 1.1033 -1.0083 13.4835 -0.0106 1.2885 -0.7095 -17.6892 -4.2765 -7.7360 -14.3345 5.7544 19.2940 8.3479 -2.7739 -21.0185 -53.6239 -68.4284 -0.0001 -22.3875 -0.0000 -9.6385 -0.7261 -12.7555 -0.0000 0.0000 -0.0000 -0.0000 0.0000 -0.0000 15.4672 -15.5229 7.3007 -13.0056 39.2058 72.1913 -0.0000 9.8822 0.0000 -25.5098 -4.9881 9.0316 -0.0000 0.0000 -0.0000 -0.0000 0.0000 -0.0000
 -3.3829 32.6915 -1.5762 -2.4257 2.2768 -2.8709 -5.7553 1.2007 8.4558 30.5369 -0.0000 0.0000 -19.7877 -7.4131 -6.9859 1.3611 0.0000 0.0000 2.4257 -7.9641 2.6099 14.9688 -0.0000 0.0000 -24.0367 -4.1081 -4.3202 3.9104 0.0000 0.0000 -3.2170 2.2561 0.1288 13.1798 1.3558 2.0957 -0.5426 -18.8703 -3.8631 -8.1507 -15.6217 5.5875 19.6435 9.5518 -3.1475 -17.4053 -48.0161 -68.2094 -0.0001 -19.5273 -0.0000 -11.2731 -1.4183 -10.8289 -0.0000 -0.0000 0.0000 -0.0000 -0.0000 0.0000 14.6583 -14.1182 6.9753 -19.4567 39.7934 72.5150 -0.0000 10.6005 0.0000 -26.3019 -4.3060 8.0202 -0.0000 -0.0000 0.0000 -0.0000 -0.0000 0.0000
 -3.9998 32.8345 -1.8789 -1.2244 1.1443 -2.8781 -17.6471 0.5363 10.6424 48.2006 -0.0000 0.0000 -11.4165 -10.8832 -7.9901 -5.5143 0.0000 -0.0000 3.2459 -9.8785 3.5934 10.0204 -0.0000 0.0000 -21.3522 -0.7663 -3.5440 3.7898 0.0000 0.0000 -2.6409 3.0271 0.5985 12.2811 2.0603 2.0625 -0.9059 -19.8950 -3.1754 -8.4749 -15.5069 4.7973 19.0624 10.2853 -1.7345 -15.5370 -41.5388 -71.8270 -0.0001 -13.8726 -0.0000 -12.0791 -1.6127 -11.0168 -0.0000 0.0000 -0.0000 -0.0000 0.0000 -0.0000 13.2548 -13.6755 5.3709 -26.5703 40.4775 74.5394 -0.0001 13.4847 0.0000 -26.0001 -3.4178 6.7377 -0.0000 -0.0000 0.0000 -0.0000 -0.0000 0.0000
 -4.4020 32.8466 -2.0921 -1.0513 0.3917 -2.4950 -26.8777 -1.0455 11.5714 62.8794 -0.0000 0.0000 -10.5091 -12.0965 -8.4881 4.4634 -0.0000 0.0000 3.7921 -9.7170 4.0533 7.7270 -0.0000 0.0000 -20.4251 -0.1445 -3.3696 4.0514 -0.0000 0.0000 -2.2198 3.3997 1.0198 13.1353 2.2810 1.7557 -1.2282 -20.6385 -2.6659 -9.6563 -15.2457 4.8004 19.2862 10.6274 -1.2600 -13.2029 -38.1051 -73.2069 -0.0000 -9.5878 -0.0000 -10.5121 0.2644 -14.7917 -0.0000 -0.0000 0.0000 -0.0000 -0.0000 0.0000 12.2705 -13.1090 4.3013 -32.8624 40.7135 75.0327 -0.0001 18.3847 0.0000 -27.0916 -2.1514 6.6364 -0.0000 -0.0000 0.0000 -0.0000 -0.0000 0.0000
 -4.6234 32.8909 -2.0592 -1.3343 -0.7002 -1.8818 -31.3197 -1.8621 11.1900 72.9483 -0.0000 0.0000 -11.5438 -10.6801 -6.6907 4.5052 0.0000 0.0000 4.6345 -9.2153 3.8625 6.3579 -0.0000 0.0000 -19.7962 0.3854 -3.3515 4.0677 0.0000 0.0000 -2.1351 3.7258 0.9614 13.6284 2.5266 1.5211 -0.5201 -21.1252 -2.0847 -9.9105 -15.2591 4.9096 19.6836 11.1716 -1.5506 -10.5820 -37.4315 -73.6525 -0.0000 -6.2269 -0.0000 -8.7463 0.3328 -14.6746 -0.0000 -0.0000 0.0000 -0.0000 -0.0000 0.0000 12.1241 -12.8515 4.3804 -37.7168 41.2044 74.8195 -0.0001 20.9725 0.0000 -27.0293 -0.8189 5.5975 -0.0000 0.0000 -0.0000 -0.0000 0.0000 -0.0000
 -4.7531 32.9301 -1.9224 -1.1761 -1.3583 -1.5502 -32.3555 -2.3891 10.0328 77.2214 -0.0000 0.0000 -13.1153 -7.9815 -5.2240 4.5929 -0.0000 0.0000 4.7993 -9.2223 3.7134 6.0360 -0.0000 0.0000 -19.5730 1.0658 -3.4965 3.9690 0.0000 0.0000 -2.3408 3.9589 0.7794 13.3115 2.7367 1.4619 -0.3644 -21.7876 -1.6599 -9.4122 -15.4545 4.6689 19.6670 11.5944 -1.0259 -10.0069 -33.5489 -75.3646 -0.0000 -4.8617 -0.0000 -10.0691 0.8052 -15.5402 -0.0000 -0.0000 0.0000 -0.0000 -0.0000 0.0000 11.7507 -13.2280 3.8757 -39.6837 40.2740 75.6568 -0.0001 22.5776 0.0000 -26.9511 -0.5330 4.8063 -0.0000 -0.0000 0.0000 -0.0000 -0.0000 0.0000
 -4.7944 32.9267 -1.7475 -1.0475 -1.6825 -1.6397 -29.4817 -2.1030 8.9138 74.0550 -0.0000 0.0000 -14.7618 -4.0907 -2.9336 4.7250 -0.0000 0.0000 4.7135 -9.3801 3.8287 6.5845 -0.0000 0.0000 -19.8361 1.4427 -3.7858 3.7354 -0.0000 0.0000 -2.5970 3.9812 0.7862 13.0722 2.7485 1.4490 -0.5835 -22.2231 -1.5022 -9.1075 -15.6730 4.8336 19.7255 11.5577 -0.8557 -10.7855 -31.5828 -76.1927 -0.0000 -4.2185 -0.0000 -11.0213 0.4935 -15.6209 -0.0000 -0.0000 0.0000 -0.0000 -0.0000 0.0000 11.9292 -13.2031 3.8131 -38.8184 40.7038 75.4015 -0.0001 22.9585 0.0000 -27.0986 -0.5593 5.1160 -0.0000 0.0000 -0.0000 -0.0000 0.0000 -0.0000
